<svg width="360" height="360" viewBox="0 0 360 360" fill="none" xmlns="http://www.w3.org/2000/svg">
<path d="M149.489 41.9998V42.514H150.004H210.003H210.518V41.9998C210.518 25.1733 196.829 11.4852 180.003 11.4852C163.177 11.4852 149.489 25.174 149.489 41.9998ZM138.518 41.9998C138.518 19.1242 157.127 0.514282 180.003 0.514282C202.88 0.514282 221.489 19.1242 221.489 41.9998V53.4857H138.518V41.9998Z" fill="#333" stroke="#333"/>
<path d="M84.0031 288V314.484L108.003 338.49L132.003 314.484V288H84.0031ZM120.003 309.517L108.003 321.517L96.0026 309.517V300H120.002V309.517H120.003Z" fill="#333"/>
<path d="M78.0033 180V216H138.003V180H78.0033ZM126.003 204H90.0029V191.999H126.003V204Z" fill="#333"/>
<path d="M228.003 288V314.484L252.003 338.49L276.003 314.484V288H228.003ZM264.003 309.517L252.003 321.517L240.003 309.517V300H264.002L264.003 309.517Z" fill="#333"/>
<path d="M222.004 180V216H282.003V180H222.004ZM270.003 204H234.003V191.999H270.003V204Z" fill="#333"/>
<path d="M84.0031 204V314.484L108.003 338.489L132.003 314.484V204H84.0031ZM120.003 309.517L108.003 321.517L96.0026 309.517V216H120.002V309.517H120.003Z" fill="#333"/>
<path d="M228.003 204V314.484L252.003 338.489L276.003 314.484V204H228.003ZM264.003 309.517L252.003 321.517L240.003 309.517V216H264.002V309.517H264.003Z" fill="#333"/>
<path d="M294.061 298.138C288.129 303.918 280.319 307.099 272.073 307.099L265.8 310.8L252 323.4L232.891 307.099H124.8L112.2 318.335L108 321.627L87.9429 307.543C79.6955 307.543 71.9325 305.776 66 300L56.4 286V336.935C56.4 348.363 65.6981 357.661 77.1247 357.661H282.87C294.297 357.661 303.411 348.546 303.417 337.118V289L294.061 298.138ZM292.358 336.936C292.358 342.167 288.1 346.425 282.87 346.425H77.1247C71.894 346.425 67.6357 342.167 67.6357 336.936V309.6C73.8046 312.943 77.4198 318.335 84.6 318.335L89.4 319.2L108 338.4L127.543 314.229L232.457 315.771L252 337.8L265.8 323.4L272.073 316.2C279.252 316.2 286.184 311.743 292.358 308.4V336.936Z" fill="#333"/>
<path d="M234 41.9999H126C122.688 41.9999 120 44.7103 120 48.0494V138.794C120 142.134 122.688 144.844 126 144.844H234C237.311 144.844 240 142.134 240 138.794V48.0494C240.001 44.7103 237.312 41.9999 234 41.9999ZM228 132.745H132.001V54.0995H228V132.745Z" fill="#333"/>
<path d="M300.003 41.9998H270.003C266.691 41.9998 264.003 44.6878 264.003 47.9995V133.806C264.003 135.828 265.029 137.717 266.721 138.827C267.711 139.475 268.857 139.805 270.003 139.805C270.82 139.805 271.635 139.637 272.41 139.301C292.816 130.379 306.003 110.237 306.003 87.989V48.0002C306.003 44.6878 303.314 41.9998 300.003 41.9998ZM294.004 87.9898C294.004 102.186 287.17 115.296 276.004 123.474V54H294.004V87.9898Z" fill="#333"/>
<path d="M90.0028 41.9998H60.0033C56.6916 41.9998 54.0035 44.6878 54.0035 47.9995V87.9898C54.0035 110.238 67.1914 130.38 87.6038 139.301C88.3716 139.638 89.1879 139.805 90.0035 139.805C91.1552 139.805 92.2957 139.476 93.2857 138.827C94.9838 137.717 96.004 135.828 96.004 133.806V48.0002C96.0033 44.6878 93.3152 41.9998 90.0028 41.9998ZM84.0031 123.474C72.8431 115.296 66.0031 102.186 66.0031 87.9898V54H84.0031V123.474Z" fill="#333"/>
<path d="M262.102 31.2H241.917C234.249 31.2 228.01 37.1728 228.01 44.5117V180.514C228.01 183.041 228.484 185.545 229.456 188.175L230.872 191.999H273.141L274.564 188.175C275.535 185.55 276.01 183.04 276.01 180.514V44.5124C276.009 37.1728 269.769 31.2 262.102 31.2ZM264.003 180.514H240.004V44.5124C240.004 43.5076 240.862 42.6859 241.912 42.6859H262.095C263.146 42.6859 264.003 43.507 264.003 44.5124V180.514Z" fill="#333"/>
<path d="M262.102 31.2H241.917C234.249 31.2 228.01 37.1728 228.01 44.5117V180.514C228.01 183.041 228.484 185.545 229.456 188.175L230.872 191.999H273.141L274.564 188.175C275.535 185.55 276.01 183.04 276.01 180.514V44.5124C276.009 37.1728 269.769 31.2 262.102 31.2ZM264.003 180.514H240.004V44.5124C240.004 43.5076 240.862 42.6859 241.912 42.6859H262.095C263.146 42.6859 264.003 43.507 264.003 44.5124V180.514Z" stroke="#333"/>
<path d="M95.489 180.514V181.029H96.0033H120.003H120.518V180.514V44.5124C120.518 43.2018 119.408 42.1716 118.095 42.1716H97.9116C96.5984 42.1716 95.489 43.2028 95.489 44.5124V180.514ZM97.9172 31.7142H118.102C125.506 31.7142 131.495 37.4778 131.496 44.5124V180.514C131.496 182.974 131.034 185.423 130.081 187.996L128.784 191.485H87.2298L85.9381 187.996C84.9844 185.417 84.5237 182.974 84.5237 180.514V44.5117C84.5237 37.4778 90.5115 31.7142 97.9172 31.7142Z" fill="#333" stroke="#333"/>
<path d="M90.0092 192H99.6089L96.7647 183.997C96.2606 182.563 96.0089 181.255 96.0089 180.001V129.907L92.4089 128.335C83.4447 124.422 75.9452 117.523 71.2828 108.901L60.0026 88.0566V240.001H96.0026L96.0089 204.001H90.0092V192ZM84.003 180H78.0033V216H84.003V228H72.0028V129.108C75.6092 132.444 79.6409 135.306 84.003 137.598V180Z" fill="#333"/>
<path d="M288.729 108.9C284.068 117.516 276.567 124.422 267.603 128.334L264.003 129.905V180C264.003 181.254 263.757 182.562 263.247 183.996L260.41 191.999H270.003V204H264.003V240H300.003V88.0559L288.729 108.9ZM288.003 228H276.003V216H282.002V180H276.003V137.598C280.365 135.305 284.397 132.444 288.003 129.107V228Z" fill="#333"/>
<path d="M62.3957 229.2C57.7632 229.2 52 234.588 52 241.2V273.533C52 298.709 68.3389 319.2 85.966 319.2H95.9998V229.2H62.3957ZM87.5957 307.199H85.9621C72.9713 307.199 62.3957 292.098 62.3957 273.533L62.3913 241.2H87.5957V307.199Z" fill="#333"/>
<path d="M298.404 228H264V318H274.273C292.32 318 308.004 297.509 308 272.333V239.999C308 233.505 303.143 228 298.404 228ZM298.404 272.333C298.404 290.897 287.582 306 274.277 306H272.604V239.999H298.404V272.333Z" fill="#333"/>
<path d="M120.003 228V318H240.004V228H120.003ZM228.003 306H132.004V240H228.003V306Z" fill="#333"/>
</svg>
