<svg width="237" height="155" viewBox="0 0 237 155" fill="none" xmlns="http://www.w3.org/2000/svg">
<path d="M106.469 154C106.344 153.75 106.242 153.305 106.164 152.664C105.156 153.711 103.953 154.234 102.555 154.234C101.305 154.234 100.277 153.883 99.4727 153.18C98.6758 152.469 98.2773 151.57 98.2773 150.484C98.2773 149.164 98.7773 148.141 99.7773 147.414C100.785 146.68 102.199 146.312 104.02 146.312H106.129V145.316C106.129 144.559 105.902 143.957 105.449 143.512C104.996 143.059 104.328 142.832 103.445 142.832C102.672 142.832 102.023 143.027 101.5 143.418C100.977 143.809 100.715 144.281 100.715 144.836H98.5352C98.5352 144.203 98.7578 143.594 99.2031 143.008C99.6562 142.414 100.266 141.945 101.031 141.602C101.805 141.258 102.652 141.086 103.574 141.086C105.035 141.086 106.18 141.453 107.008 142.188C107.836 142.914 108.266 143.918 108.297 145.199V151.035C108.297 152.199 108.445 153.125 108.742 153.812V154H106.469ZM102.871 152.348C103.551 152.348 104.195 152.172 104.805 151.82C105.414 151.469 105.855 151.012 106.129 150.449V147.848H104.43C101.773 147.848 100.445 148.625 100.445 150.18C100.445 150.859 100.672 151.391 101.125 151.773C101.578 152.156 102.16 152.348 102.871 152.348Z" fill="white"/>
<path d="M186.727 82.4648C187.5 82.4648 188.176 82.2305 188.754 81.7617C189.332 81.293 189.652 80.707 189.715 80.0039H191.766C191.727 80.7305 191.477 81.4219 191.016 82.0781C190.555 82.7344 189.938 83.2578 189.164 83.6484C188.398 84.0391 187.586 84.2344 186.727 84.2344C185 84.2344 183.625 83.6602 182.602 82.5117C181.586 81.3555 181.078 79.7773 181.078 77.7773V77.4141C181.078 76.1797 181.305 75.082 181.758 74.1211C182.211 73.1602 182.859 72.4141 183.703 71.8828C184.555 71.3516 185.559 71.0859 186.715 71.0859C188.137 71.0859 189.316 71.5117 190.254 72.3633C191.199 73.2148 191.703 74.3203 191.766 75.6797H189.715C189.652 74.8594 189.34 74.1875 188.777 73.6641C188.223 73.1328 187.535 72.8672 186.715 72.8672C185.613 72.8672 184.758 73.2656 184.148 74.0625C183.547 74.8516 183.246 75.9961 183.246 77.4961V77.9062C183.246 79.3672 183.547 80.4922 184.148 81.2812C184.75 82.0703 185.609 82.4648 186.727 82.4648Z" fill="white"/>
<path d="M236.375 129.801C236.375 131.738 235.93 133.297 235.039 134.477C234.148 135.648 232.953 136.234 231.453 136.234C229.852 136.234 228.613 135.668 227.738 134.535L227.633 136H225.641V118H227.809V124.715C228.684 123.629 229.891 123.086 231.43 123.086C232.969 123.086 234.176 123.668 235.051 124.832C235.934 125.996 236.375 127.59 236.375 129.613V129.801ZM234.207 129.555C234.207 128.078 233.922 126.938 233.352 126.133C232.781 125.328 231.961 124.926 230.891 124.926C229.461 124.926 228.434 125.59 227.809 126.918V132.402C228.473 133.73 229.508 134.395 230.914 134.395C231.953 134.395 232.762 133.992 233.34 133.188C233.918 132.383 234.207 131.172 234.207 129.555Z" fill="white"/>
<path d="M1 32.5H146.161H201" stroke="#333333" stroke-width="4"/>
<path d="M1 132.5H146.161H201" stroke="white" stroke-width="4"/>
<path d="M2 32.5V132.5" stroke="#333333" stroke-width="4"/>
<path d="M29 2.5H174.161H229" stroke="#333333" stroke-width="4"/>
<path d="M29 102.5H174.161H229" stroke="#333333" stroke-width="4"/>
<path d="M30 2.5V102.5" stroke="#333333" stroke-width="4"/>
<path d="M228 2V103" stroke="#333333" stroke-width="4"/>
<path d="M2 32L30 2" stroke="#333333" stroke-width="4"/>
<path d="M2 132L30 102" stroke="#333333" stroke-width="4"/>
<path d="M200 133L228 103" stroke="white" stroke-width="4"/>
<path d="M200 32V133" stroke="white" stroke-width="4"/>
<path d="M200 32L228 2" stroke="#333333" stroke-width="4"/>
</svg>
